<svg width="20" height="20" viewBox="0 0 20 20" fill="none" xmlns="http://www.w3.org/2000/svg">
<path d="M19.4321 9.82543C21.9714 9.82543 23.9994 7.85311 23.9994 5.40345C23.9994 2.96738 21.9714 1 19.4321 1C16.9456 1 14.9355 2.96738 14.9355 5.40345C14.9355 7.85311 16.945 9.82543 19.4321 9.82543Z" fill="white"/>
<path d="M19.4321 25.0001C21.9714 25.0001 23.9994 23.0198 23.9994 20.5837C23.9994 18.1519 21.9714 16.1648 19.4321 16.1648C16.9456 16.1648 14.9355 18.1526 14.9355 20.5837C14.9355 23.0198 16.945 25.0001 19.4321 25.0001Z" fill="white"/>
<path d="M4.55897 25.0001C7.0359 25.0001 9.1103 23.0198 9.1103 20.5837C9.1103 18.1519 7.0359 16.1648 4.55897 16.1648C2.00944 16.1648 0 18.1526 0 20.5837C0 23.0198 2.00944 25.0001 4.55897 25.0001Z" fill="white"/>
<path d="M4.5679 15C2.02855 15 0.000644684 16.9723 0.000644684 19.422C0.000644684 21.8581 2.02855 23.8254 4.5679 23.8254C7.05438 23.8254 9.06445 21.8581 9.06445 19.422C9.06445 16.9723 7.05502 15 4.5679 15Z" fill="black"/>
<path d="M19.5504 14.9999C17.0735 14.9999 14.9991 16.9802 14.9991 19.4163C14.9991 21.8481 17.0735 23.8352 19.5504 23.8352C22.0999 23.8352 24.1094 21.8474 24.1094 19.4163C24.1094 16.9802 22.0999 14.9999 19.5504 14.9999Z" fill="black"/>
<path d="M19.5679 -0.000106149C17.0286 -0.000106149 15.0006 1.98024 15.0006 4.41631C15.0006 6.84806 17.0286 8.83521 19.5679 8.83521C22.0544 8.83521 24.0645 6.84744 24.0645 4.41631C24.0645 1.98024 22.055 -0.000106149 19.5679 -0.000106149Z" fill="black"/>
</svg>
