<svg width="38" height="39" viewBox="0 0 38 39" fill="none" xmlns="http://www.w3.org/2000/svg">
<path d="M30.5112 14.292C34.4982 14.292 37.6822 11.098 37.6822 7.131C37.6822 3.186 34.4982 0 30.5112 0C26.6072 0 23.4512 3.186 23.4512 7.131C23.4512 11.098 26.6062 14.292 30.5112 14.292Z" fill="black"/>
<path d="M30.5112 38.8659C34.4982 38.8659 37.6822 35.6589 37.6822 31.7139C37.6822 27.7759 34.4982 24.5579 30.5112 24.5579C26.6072 24.5579 23.4512 27.7769 23.4512 31.7139C23.4512 35.6589 26.6062 38.8659 30.5112 38.8659Z" fill="black"/>
<path d="M7.158 38.8659C11.047 38.8659 14.304 35.6589 14.304 31.7139C14.304 27.7759 11.047 24.5579 7.158 24.5579C3.155 24.5579 0 27.7769 0 31.7139C0 35.6589 3.155 38.8659 7.158 38.8659Z" fill="black"/>
</svg>
